<svg width="119" height="28" viewBox="0 0 119 28" fill="none" xmlns="http://www.w3.org/2000/svg">
<path d="M9.17553 2.72406C3.63115 2.72406 0.0118964 6.52299 0.0118964 11.9134C0.0118964 17.3294 3.65682 21.1283 9.2012 21.1283C13.9242 21.1283 16.7221 18.2021 17.8001 15.5583V10.6813H8.40548V14.3005H13.4622C12.7178 15.8663 11.4344 16.6877 9.6889 16.6877C6.71136 16.6877 5.11992 15.0193 5.11992 11.9134C5.11992 9.14118 6.66002 7.37005 9.2012 7.37005C10.5873 7.37005 11.614 7.90909 12.1787 8.85882H17.5948C16.8761 5.08556 13.7445 2.72406 9.17553 2.72406ZM34.3264 13.7872C34.3264 9.21818 31.0665 6.42032 26.7799 6.42032C22.4932 6.42032 19.2334 9.21818 19.2334 13.7872C19.2334 18.3818 22.4676 21.1797 26.7542 21.1797C31.0408 21.1797 34.3264 18.3818 34.3264 13.7872ZM24.367 13.7872C24.367 11.7337 25.4965 10.784 26.7799 10.784C28.0633 10.784 29.2184 11.7337 29.2184 13.7872C29.2184 15.8663 28.0376 16.816 26.7542 16.816C25.4451 16.816 24.367 15.8663 24.367 13.7872ZM50.6449 13.7872C50.6449 9.21818 47.385 6.42032 43.0984 6.42032C38.8118 6.42032 35.5519 9.21818 35.5519 13.7872C35.5519 18.3818 38.7861 21.1797 43.0727 21.1797C47.3594 21.1797 50.6449 18.3818 50.6449 13.7872ZM40.6856 13.7872C40.6856 11.7337 41.815 10.784 43.0984 10.784C44.3818 10.784 45.5369 11.7337 45.5369 13.7872C45.5369 15.8663 44.3562 16.816 43.0727 16.816C41.7636 16.816 40.6856 15.8663 40.6856 13.7872ZM51.8704 13.7872C51.8704 18.3818 54.5912 21.1797 58.0051 21.1797C60.033 21.1797 61.4704 20.2813 62.2148 18.9979V21H67.2715V2.00535H62.2148V8.57647C61.419 7.26738 59.9303 6.42032 58.0308 6.42032C54.5912 6.42032 51.8704 9.19251 51.8704 13.7872ZM62.2404 13.7872C62.2404 15.738 61.034 16.7904 59.6223 16.7904C58.1848 16.7904 57.0041 15.7123 57.0041 13.7872C57.0041 11.8364 58.1848 10.8096 59.6223 10.8096C61.034 10.8096 62.2404 11.862 62.2404 13.7872Z" fill="white"/>
<path d="M70.1383 21H75.1693V2.00535H70.1383V21ZM85.0932 14.7626L82.0643 6.6H76.4686L82.3723 20.384L78.9328 27.8535H84.4001L93.5381 6.6H88.0194L85.0932 14.7626ZM95.3162 21H100.373V10.784H102.632V6.6H100.373C100.45 5.31658 101.066 4.90588 102.58 5.05989V0.773261C97.9088 0.439571 95.3162 2.49305 95.3162 6.47166V6.6H93.7505V10.784H95.3162V21ZM110.898 10.3989C112.053 10.3989 113.054 11.092 113.054 12.3754H108.614C108.845 11.0663 109.692 10.3989 110.898 10.3989ZM117.88 16.0203H112.515C112.233 16.6107 111.694 17.1497 110.719 17.1497C109.589 17.1497 108.691 16.4824 108.588 14.8139H118.111C118.162 14.4289 118.188 14.0182 118.188 13.6332C118.188 9.16684 115.185 6.42032 110.924 6.42032C106.612 6.42032 103.608 9.21818 103.608 13.7872C103.608 18.3818 106.663 21.1797 110.924 21.1797C114.517 21.1797 117.213 18.9722 117.88 16.0203Z" fill="#E43071"/>
</svg>
