<svg width="25" height="20" viewBox="0 0 25 20" fill="none" xmlns="http://www.w3.org/2000/svg">
<path d="M23.6865 0.719727V2.10742C21.723 2.82487 20.1842 3.95768 19.0703 5.50586C17.9564 7.03516 17.3994 8.63053 17.3994 10.292C17.3994 10.6507 17.4561 10.915 17.5693 11.085C17.6449 11.1982 17.7298 11.2549 17.8242 11.2549C17.9186 11.2549 18.0602 11.1888 18.249 11.0566C18.8532 10.6224 19.6178 10.4053 20.543 10.4053C21.6191 10.4053 22.5726 10.849 23.4033 11.7363C24.234 12.6048 24.6494 13.6432 24.6494 14.8516C24.6494 16.1165 24.168 17.2305 23.2051 18.1934C22.2611 19.1562 21.1094 19.6377 19.75 19.6377C18.1641 19.6377 16.7952 18.9863 15.6436 17.6836C14.4919 16.3809 13.916 14.6344 13.916 12.4443C13.916 9.89551 14.6995 7.611 16.2666 5.59082C17.8337 3.57064 20.307 1.94694 23.6865 0.719727ZM10.0645 0.719727V2.10742C8.10091 2.82487 6.56217 3.95768 5.44824 5.50586C4.33431 7.03516 3.77734 8.63053 3.77734 10.292C3.77734 10.6507 3.83398 10.915 3.94727 11.085C4.02279 11.1982 4.10775 11.2549 4.20215 11.2549C4.29655 11.2549 4.43815 11.1888 4.62695 11.0566C5.23112 10.6224 5.99577 10.4053 6.9209 10.4053C7.99707 10.4053 8.95052 10.849 9.78125 11.7363C10.612 12.6048 11.0273 13.6432 11.0273 14.8516C11.0273 16.1165 10.5459 17.2305 9.58301 18.1934C8.639 19.1562 7.4873 19.6377 6.12793 19.6377C4.54199 19.6377 3.17318 18.9863 2.02148 17.6836C0.869792 16.3809 0.293945 14.6344 0.293945 12.4443C0.293945 9.89551 1.07747 7.611 2.64453 5.59082C4.21159 3.57064 6.6849 1.94694 10.0645 0.719727Z" fill="#F8C5D7"/>
</svg>
